<svg width="40" height="40" viewBox="0 0 40 40" fill="none" xmlns="http://www.w3.org/2000/svg">
<path d="M34.1431 5.85685C30.364 2.07771 25.3415 0 20 0C14.6585 0 9.63599 2.07771 5.85685 5.85685C2.07771 9.63599 0 14.6585 0 20C0 25.3415 2.07771 30.364 5.85685 34.1431C9.63599 37.9223 14.6585 40 20 40C25.3415 40 30.364 37.9223 34.1431 34.1431C37.9223 30.364 40 25.3415 40 20C40 14.6585 37.9223 9.63599 34.1431 5.85685ZM20 37.7914C10.1922 37.7914 2.20859 29.8078 2.20859 20C2.20859 10.1922 10.1922 2.20859 20 2.20859C29.8078 2.20859 37.7914 10.1922 37.7914 20C37.7914 29.8078 29.8078 37.7914 20 37.7914Z" fill="#8FDA0A"/>
<path d="M19.3129 13.8405C18.8793 13.407 18.184 13.407 17.7505 13.8405C17.317 14.274 17.317 14.9693 17.7505 15.4029L22.3476 20L17.7505 24.5972C17.317 25.0307 17.317 25.726 17.7505 26.1595C17.9632 26.3722 18.2495 26.4867 18.5276 26.4867C18.8057 26.4867 19.092 26.3804 19.3047 26.1595L24.6789 20.7853C25.1125 20.3518 25.1125 19.6565 24.6789 19.2229L19.3129 13.8405Z" fill="#8FDA0A"/>
</svg>
