<svg width="41" height="41" viewBox="0 0 41 41" fill="none" xmlns="http://www.w3.org/2000/svg">
<circle cx="20.5" cy="20.5" r="20.5" fill="#0172CE"/>
<path d="M29.0897 13.2973H11.9107C10.8423 13.2973 9.97314 13.9184 9.97314 14.6829C9.97314 15.4464 10.8423 16.0676 11.9107 16.0676H29.0897C30.158 16.0676 31.0272 15.4464 31.0272 14.6829C31.0272 13.9184 30.158 13.2973 29.0897 13.2973Z" fill="white"/>
<path d="M29.0897 19.2434H11.9107C10.8423 19.2434 9.97314 19.8645 9.97314 20.629C9.97314 21.3925 10.8423 22.0136 11.9107 22.0136H29.0897C30.158 22.0136 31.0272 21.3925 31.0272 20.629C31.0272 19.8645 30.158 19.2434 29.0897 19.2434Z" fill="white"/>
<path d="M29.0897 25.1895H11.9107C10.8423 25.1895 9.97314 25.8107 9.97314 26.5751C9.97314 27.3386 10.8423 27.9598 11.9107 27.9598H29.0897C30.158 27.9598 31.0272 27.3386 31.0272 26.5751C31.0272 25.8107 30.158 25.1895 29.0897 25.1895Z" fill="white"/>
</svg>
