<svg width="199" height="199" viewBox="0 0 199 199" fill="none" xmlns="http://www.w3.org/2000/svg">
<g filter="url(#filter0_bd_11_185)">
<path d="M185 99.5C185 146.72 146.72 185 99.5 185C52.2797 185 14 146.72 14 99.5C14 52.2797 52.2797 14 99.5 14C146.72 14 185 52.2797 185 99.5ZM54.3991 99.5C54.3991 124.409 74.5915 144.601 99.5 144.601C124.409 144.601 144.601 124.409 144.601 99.5C144.601 74.5915 124.409 54.3991 99.5 54.3991C74.5915 54.3991 54.3991 74.5915 54.3991 99.5Z" fill="white" fill-opacity="0.16" shape-rendering="crispEdges"/>
</g>
<path d="M168.21 101.012C168.785 101.66 169.047 102.444 168.993 103.365C168.94 104.287 168.59 105.035 167.944 105.612C167.297 106.189 166.517 106.45 165.604 106.397C164.69 106.344 163.946 105.994 163.37 105.347C162.795 104.699 162.533 103.915 162.587 102.994C162.64 102.072 162.99 101.324 163.636 100.747C164.283 100.17 165.063 99.9086 165.976 99.9616C166.89 100.015 167.634 100.365 168.21 101.012ZM164.199 101.45C163.743 101.851 163.495 102.383 163.457 103.044C163.419 103.706 163.603 104.262 164.011 104.714C164.424 105.166 164.973 105.412 165.659 105.451C166.344 105.491 166.915 105.31 167.371 104.909C167.834 104.508 168.085 103.976 168.123 103.315C168.161 102.653 167.974 102.097 167.56 101.645C167.153 101.193 166.606 100.947 165.921 100.907C165.236 100.868 164.662 101.048 164.199 101.45Z" fill="white"/>
<path d="M166.974 108.892L167.671 108.377C167.932 108.653 168.108 108.953 168.198 109.275C168.3 109.606 168.314 109.989 168.242 110.422C168.14 111.033 167.9 111.479 167.52 111.761C167.185 112.006 166.804 112.093 166.377 112.022C166.084 111.973 165.842 111.863 165.651 111.693C165.453 111.528 165.307 111.316 165.213 111.055C165.071 111.377 164.845 111.621 164.535 111.789C164.238 111.953 163.877 111.999 163.45 111.928C162.901 111.836 162.481 111.555 162.189 111.086C161.905 110.611 161.82 110.032 161.934 109.348C162.031 108.768 162.273 108.293 162.66 107.925C162.971 107.638 163.344 107.433 163.778 107.311L164.061 108.206C163.73 108.277 163.451 108.425 163.225 108.651C162.992 108.888 162.841 109.208 162.774 109.611C162.706 110.014 162.764 110.344 162.947 110.601C163.11 110.829 163.343 110.968 163.648 111.019C163.965 111.072 164.223 110.993 164.421 110.781C164.618 110.582 164.758 110.226 164.844 109.712L164.936 109.163L165.814 109.31L165.731 109.804C165.666 110.195 165.7 110.502 165.832 110.725C165.953 110.934 166.146 111.06 166.408 111.104C166.682 111.15 166.909 111.088 167.088 110.917C167.236 110.778 167.336 110.553 167.388 110.242C167.437 109.949 167.421 109.692 167.338 109.471C167.261 109.257 167.14 109.064 166.974 108.892Z" fill="white"/>
<path d="M167.006 116.151L164.646 115.501L163.942 118.062L166.303 118.713L166.052 119.626L160.088 117.983L160.339 117.069L163.084 117.826L163.787 115.264L161.042 114.508L161.293 113.594L167.257 115.238L167.006 116.151Z" fill="white"/>
<path d="M157.832 124.163L159.46 124.11L160.434 121.65L159.296 120.468L159.672 119.518L164.623 124.803L157.456 125.113L157.832 124.163ZM161.118 122.341L160.427 124.085L162.714 124.005L161.118 122.341Z" fill="white"/>
<path d="M161.837 130.249L159.652 129.104L160.728 132.372L160.152 133.475L158.965 129.698L154.663 130.62L155.247 129.501L158.703 128.816L158.624 128.565L156.356 127.377L156.795 126.538L162.276 129.409L161.837 130.249Z" fill="white"/>
<path d="M158.018 135.525C158.184 136.376 158.01 137.184 157.495 137.95C156.981 138.715 156.299 139.181 155.45 139.348C154.6 139.514 153.796 139.341 153.037 138.83C152.278 138.318 151.815 137.637 151.649 136.786C151.483 135.935 151.657 135.127 152.171 134.361C152.685 133.596 153.367 133.13 154.217 132.963C155.066 132.797 155.871 132.97 156.63 133.481C157.389 133.993 157.851 134.674 158.018 135.525ZM154.344 133.855C153.747 133.968 153.264 134.299 152.894 134.849C152.525 135.398 152.401 135.971 152.522 136.568C152.648 137.168 152.995 137.66 153.565 138.044C154.134 138.427 154.717 138.563 155.315 138.45C155.917 138.341 156.403 138.012 156.772 137.462C157.141 136.913 157.263 136.338 157.137 135.738C157.016 135.141 156.671 134.651 156.102 134.267C155.532 133.884 154.946 133.746 154.344 133.855Z" fill="white"/>
<path d="M149.162 138.787L149.795 138.059L153.957 143.413L148.921 141.879L151.12 146.677L145.337 143.187L145.971 142.458L149.196 144.434L147.349 140.434L151.554 141.736L149.162 138.787Z" fill="white"/>
<path d="M141.073 147.153L143.863 150.248L143.983 144.145L148.316 148.95L147.614 149.585L144.81 146.475L144.69 152.579L140.371 147.788L141.073 147.153Z" fill="white"/>
<path d="M139.675 155.005L140.81 154.153L137.633 149.909L138.39 149.341L141.567 153.584L142.702 152.731L143.236 153.445L140.209 155.719L139.675 155.005Z" fill="white"/>
<path d="M135.172 151.705L138.473 156.944L137.673 157.45L136.342 155.337L135.746 155.713C135.186 156.067 134.662 156.204 134.174 156.125C133.663 156.045 133.256 155.764 132.952 155.283C132.794 155.031 132.699 154.754 132.669 154.451C132.637 154.156 132.681 153.872 132.801 153.599C132.965 153.232 133.287 152.896 133.768 152.592L135.172 151.705ZM135.867 154.583L134.847 152.964L134.282 153.321C133.582 153.764 133.398 154.25 133.731 154.779C133.876 155.009 134.077 155.154 134.333 155.212C134.587 155.278 134.905 155.191 135.286 154.949L135.867 154.583Z" fill="white"/>
<path d="M129.108 161.879L128.603 160.886C129.262 161.064 129.865 161.014 130.41 160.736C131.005 160.432 131.389 159.986 131.562 159.398C131.732 158.818 131.661 158.222 131.35 157.609C131.05 157.019 130.609 156.622 130.027 156.418C129.448 156.22 128.866 156.27 128.282 156.568C127.736 156.846 127.348 157.311 127.118 157.964L126.609 156.962C126.932 156.45 127.366 156.055 127.911 155.777C128.677 155.386 129.456 155.309 130.249 155.544C131.119 155.795 131.767 156.34 132.193 157.179C132.642 158.062 132.713 158.933 132.407 159.791C132.144 160.529 131.602 161.108 130.781 161.526C130.213 161.816 129.656 161.933 129.108 161.879Z" fill="white"/>
<path d="M125.523 157.091L124.767 160.17C125.122 160.075 125.469 160.087 125.809 160.206C126.251 160.363 126.576 160.707 126.786 161.236C126.977 161.72 126.989 162.178 126.822 162.611C126.733 162.84 126.599 163.04 126.421 163.21C126.242 163.381 126.089 163.499 125.961 163.563C125.834 163.627 125.672 163.698 125.477 163.775L124.063 164.337L121.782 158.578L122.661 158.229L123.575 160.534L123.781 160.452L124.437 157.523L125.523 157.091ZM124.621 163.176L125.052 163.005C125.523 162.817 125.815 162.598 125.929 162.347C126.044 162.101 126.048 161.843 125.941 161.572C125.818 161.261 125.618 161.074 125.34 161.012C125.078 160.956 124.758 161.003 124.379 161.154L123.896 161.346L124.621 163.176Z" fill="white"/>
<path d="M114.266 166.857L113.999 165.774C114.601 166.098 115.199 166.186 115.794 166.039C116.442 165.879 116.917 165.532 117.218 164.998C117.515 164.472 117.582 163.875 117.417 163.208C117.259 162.564 116.919 162.077 116.398 161.747C115.879 161.422 115.301 161.339 114.665 161.496C114.071 161.643 113.588 162.008 113.215 162.591L112.947 161.499C113.377 161.074 113.889 160.788 114.483 160.641C115.318 160.435 116.094 160.537 116.813 160.946C117.603 161.389 118.111 162.067 118.336 162.981C118.573 163.943 118.445 164.807 117.952 165.573C117.529 166.232 116.87 166.672 115.975 166.893C115.357 167.046 114.787 167.034 114.266 166.857Z" fill="white"/>
<path d="M109.224 168.08L104.699 168.5L104.127 162.331L105.069 162.244L105.559 167.525L108.199 167.279L107.71 161.998L108.652 161.911L109.224 168.08Z" fill="white"/>
<path d="M98.5037 161.959H99.867C100.436 161.959 100.887 162.071 101.221 162.294C101.468 162.461 101.657 162.681 101.787 162.953C101.923 163.219 101.991 163.501 101.991 163.798C101.991 164.356 101.79 164.808 101.388 165.155C101.011 165.477 100.507 165.638 99.8762 165.638H99.4496V168.155H98.5037V161.959ZM99.4496 162.832V164.764H99.8762C100.272 164.764 100.572 164.678 100.776 164.504C100.98 164.325 101.082 164.086 101.082 163.789C101.082 163.684 101.066 163.585 101.035 163.492C101.011 163.399 100.958 163.3 100.878 163.195C100.804 163.083 100.68 162.997 100.507 162.935C100.334 162.866 100.12 162.832 99.867 162.832H99.4496Z" fill="white"/>
<path d="M95.6861 167.728C95.018 168.28 94.2255 168.511 93.3086 168.422C92.3917 168.333 91.6581 167.954 91.1078 167.285C90.5575 166.616 90.3263 165.825 90.4144 164.913C90.5025 164 90.8806 163.269 91.5487 162.717C92.2168 162.166 93.0093 161.935 93.9262 162.024C94.8431 162.113 95.5768 162.492 96.1271 163.161C96.6774 163.83 96.9085 164.621 96.8204 165.533C96.7323 166.445 96.3542 167.177 95.6861 167.728ZM95.4044 163.698C95.0215 163.225 94.5008 162.957 93.8423 162.893C93.1839 162.829 92.6215 162.992 92.1553 163.383C91.6884 163.779 91.422 164.32 91.3559 165.004C91.2899 165.688 91.4483 166.266 91.8313 166.739C92.2136 167.218 92.734 167.489 93.3925 167.553C94.0509 167.617 94.6136 167.45 95.0804 167.054C95.5467 166.663 95.8128 166.126 95.8789 165.442C95.9449 164.758 95.7868 164.176 95.4044 163.698Z" fill="white"/>
<path d="M87.4731 167.522L83.7011 166.712L84.8121 161.526L84.123 161.378L84.6017 159.143L85.4721 159.33L85.1802 160.693L89.0791 161.531L89.371 160.168L90.2414 160.356L89.7628 162.59C89.5586 162.54 89.3556 162.572 89.1539 162.687C88.951 162.808 88.7752 162.979 88.6266 163.201C88.4024 163.539 88.2163 164.053 88.0684 164.743L87.4731 167.522ZM86.735 166.452L87.1436 164.544C87.3057 163.788 87.4959 163.239 87.714 162.9C87.8825 162.645 88.0909 162.439 88.3392 162.284L85.737 161.724L84.8128 166.038L86.735 166.452Z" fill="white"/>
<path d="M81.4106 166.16L80.3182 165.801L79.8339 162.16L77.4286 164.849L76.4947 164.542L81.0781 159.529L82.0119 159.836L80.7069 161.255L81.4106 166.16Z" fill="white"/>
<path d="M73.5228 163.364L74.5176 161.103L71.3334 162.397L70.1962 161.895L73.8799 160.456L72.6736 156.218L73.8277 156.728L74.7405 160.135L74.985 160.04L76.0171 157.694L76.8827 158.076L74.3884 163.746L73.5228 163.364Z" fill="white"/>
<path d="M71.3027 155.553L68.2354 160.933L67.414 160.463L70.0398 155.857L67.8171 154.586L65.1913 159.192L64.3699 158.722L66.9957 154.116L66.3031 153.72L67.4344 151.736L68.2075 152.178L67.5177 153.388L71.3027 155.553Z" fill="white"/>
<path d="M62.0296 149.637L59.5802 153.01L65.568 151.87L61.7657 157.106L61.0008 156.549L63.4611 153.161L57.4733 154.3L61.2647 149.079L62.0296 149.637Z" fill="white"/>
<path d="M53.2954 150.379L53.8848 149.711L55.7335 151.347L56.7711 150.171L54.9781 148.584L55.5675 147.915L57.3606 149.502L58.65 148.04L56.8013 146.404L57.3908 145.736L59.9483 147.999L55.8529 152.643L53.2954 150.379Z" fill="white"/>
<path d="M53.0577 141.306L50.0084 144.146L56.1031 144.178L51.3696 148.587L50.7255 147.893L53.7884 145.04L47.6936 145.009L52.4136 140.613L53.0577 141.306ZM49.5481 148.875L48.7984 148.559C48.8592 148.451 48.8937 148.343 48.9021 148.234C48.9017 148.124 48.8812 148.025 48.8407 147.936C48.7914 147.846 48.7545 147.779 48.7299 147.735C48.7007 147.694 48.6714 147.658 48.6419 147.626C48.6125 147.594 48.5786 147.563 48.5404 147.53C48.4977 147.503 48.4357 147.463 48.3544 147.412C48.2644 147.361 48.167 147.333 48.0622 147.329C47.9486 147.325 47.8362 147.349 47.7249 147.402L47.4642 146.63C47.8145 146.498 48.1407 146.491 48.4427 146.607C48.7405 146.718 48.9925 146.885 49.1988 147.108C49.4051 147.33 49.5551 147.596 49.6489 147.906C49.7384 148.212 49.7048 148.535 49.5481 148.875Z" fill="white"/>
<path d="M39.5577 123.555C39.4095 123.882 39.1675 124.108 38.8317 124.235C38.496 124.361 38.165 124.35 37.8386 124.201C37.5122 124.053 37.2861 123.81 37.1601 123.474C37.0341 123.138 37.0453 122.806 37.1935 122.479C37.3418 122.152 37.5838 121.926 37.9195 121.799C38.2553 121.673 38.5863 121.684 38.9127 121.833C39.239 121.981 39.4652 122.224 39.5912 122.56C39.7172 122.896 39.706 123.228 39.5577 123.555Z" fill="white"/>
<path d="M31.8233 99.1823C31.2378 98.5438 30.9646 97.7636 31.0037 96.8417C31.0428 95.9198 31.381 95.1657 32.0185 94.5792C32.656 93.9927 33.4318 93.7189 34.346 93.7578C35.2602 93.7967 36.01 94.1354 36.5956 94.7739C37.1811 95.4124 37.4543 96.1926 37.4152 97.1145C37.3761 98.0364 37.0378 98.7905 36.4004 99.377C35.7629 99.9635 34.9871 100.237 34.0729 100.198C33.1587 100.16 32.4089 99.8208 31.8233 99.1823ZM35.8265 98.6832C36.2769 98.2747 36.5162 97.7394 36.5443 97.0774C36.5724 96.4154 36.3793 95.8618 35.965 95.4165C35.5445 94.9709 34.9915 94.7335 34.3059 94.7044C33.6202 94.6752 33.0522 94.8649 32.6017 95.2734C32.145 95.6816 31.9027 96.2168 31.8746 96.8788C31.8465 97.5408 32.0427 98.0946 32.4632 98.5401C32.8774 98.9854 33.4274 99.2226 34.113 99.2518C34.7987 99.281 35.3698 99.0915 35.8265 98.6832Z" fill="white"/>
<path d="M32.9333 91.2975L32.2444 91.8225C31.9791 91.5505 31.7988 91.2539 31.7035 90.9326C31.5969 90.6033 31.5765 90.2212 31.6422 89.7865C31.7347 89.1742 31.9684 88.7243 32.3432 88.4366C32.6749 88.1863 33.0547 88.0935 33.4826 88.1584C33.776 88.2029 34.0195 88.3087 34.2131 88.4758C34.4138 88.6377 34.5633 88.8483 34.6617 89.1075C34.7981 88.7837 35.0201 88.5355 35.3276 88.3629C35.6219 88.1945 35.983 88.1428 36.4109 88.2077C36.961 88.291 37.3854 88.5652 37.6841 89.0301C37.9757 89.5002 38.0698 90.0781 37.9662 90.7639C37.8783 91.3455 37.6435 91.8235 37.2618 92.1978C36.9551 92.4895 36.5857 92.6997 36.1536 92.8284L35.8567 91.9379C36.1869 91.8627 36.4632 91.7104 36.6854 91.481C36.9156 91.2403 37.0612 90.9179 37.1223 90.5138C37.1833 90.1097 37.1205 89.7808 36.9337 89.527C36.7677 89.3014 36.5319 89.1655 36.2263 89.1191C35.9084 89.071 35.6519 89.1542 35.4569 89.3689C35.2638 89.5714 35.1284 89.9298 35.0506 90.4441L34.9674 90.9951L34.0872 90.8617L34.1621 90.3658C34.2213 89.9739 34.1832 89.6675 34.0477 89.4465C33.9226 89.2397 33.7287 89.1164 33.4658 89.0765C33.1908 89.0348 32.9651 89.1008 32.7888 89.2745C32.6425 89.4152 32.5457 89.6416 32.4985 89.9539C32.4541 90.2478 32.4747 90.5046 32.5604 90.7242C32.6408 90.9368 32.7651 91.1279 32.9333 91.2975Z" fill="white"/>
<path d="M32.7747 84.0779L35.1449 84.6923L35.8094 82.1205L33.4393 81.506L33.6763 80.5888L39.6644 82.1411L39.4274 83.0584L36.6713 82.3439L36.0067 84.9158L38.7629 85.6303L38.5259 86.5475L32.5377 84.9952L32.7747 84.0779Z" fill="white"/>
<path d="M41.803 75.9587L40.1768 76.036L39.239 78.511L40.3947 79.6756L40.0327 80.6309L35.004 75.4208L42.1649 75.0034L41.803 75.9587ZM38.5448 77.8299L39.2095 76.0756L36.9243 76.1905L38.5448 77.8299Z" fill="white"/>
<path d="M37.6927 69.9286L39.8952 71.0412L38.7701 67.7888L39.3297 66.6775L40.5733 70.4371L44.8609 69.4508L44.293 70.5788L40.8482 71.3146L40.9303 71.5641L43.2156 72.7186L42.7896 73.5645L37.2668 70.7746L37.6927 69.9286Z" fill="white"/>
<path d="M41.4714 64.5071C41.2928 63.6587 41.4551 62.848 41.9581 62.075C42.4612 61.3021 43.1362 60.8262 43.9831 60.6474C44.8301 60.4685 45.6368 60.6294 46.4034 61.1299C47.1699 61.6303 47.6424 62.3047 47.8209 63.1531C47.9995 64.0015 47.8372 64.8121 47.3342 65.5851C46.8312 66.3581 46.1562 66.834 45.3092 67.0128C44.4622 67.1916 43.6555 67.0308 42.8889 66.5303C42.1224 66.0298 41.6499 65.3554 41.4714 64.5071ZM45.1688 66.1228C45.7643 66.0016 46.2427 65.6634 46.6039 65.1083C46.9651 64.5532 47.081 63.9783 46.9514 63.3837C46.8166 62.7856 46.4617 62.2989 45.8868 61.9236C45.3119 61.5482 44.7268 61.4212 44.1313 61.5424C43.5306 61.6603 43.0496 61.9968 42.6884 62.5518C42.3272 63.1069 42.2139 63.6835 42.3487 64.2816C42.4783 64.8762 42.8306 65.3612 43.4055 65.7366C43.9804 66.1119 44.5681 66.2407 45.1688 66.1228Z" fill="white"/>
<path d="M50.241 61.1469L49.6183 61.8847L45.3786 56.5919L50.4361 58.0524L48.1685 53.2862L54.0007 56.692L53.3781 57.4298L50.124 55.5015L52.0291 59.4743L47.8059 58.2337L50.241 61.1469Z" fill="white"/>
<path d="M58.264 52.5924L55.4287 49.5381L55.3974 55.6429L50.9959 50.9016L51.6886 50.2564L54.5366 53.3243L54.5679 47.2195L58.9567 51.9473L58.264 52.5924Z" fill="white"/>
<path d="M59.4674 44.7794L58.3449 45.6486L61.5834 49.8449L60.8351 50.4244L57.5965 46.2281L56.4739 47.0973L55.9294 46.3918L58.9229 44.0739L59.4674 44.7794Z" fill="white"/>
<path d="M63.9254 48.0623L60.5477 42.8719L61.3401 42.3546L62.7023 44.4478L63.2928 44.0623C63.8469 43.7005 64.3689 43.5556 64.8585 43.6277C65.3705 43.7 65.7818 43.9747 66.0924 44.452C66.2544 44.701 66.3528 44.9769 66.3874 45.2795C66.4238 45.5736 66.384 45.8583 66.268 46.1336C66.1098 46.503 65.7925 46.8432 65.316 47.1543L63.9254 48.0623ZM63.1885 45.1949L64.2317 46.7979L64.791 46.4327C65.485 45.9795 65.6616 45.491 65.3206 44.967C65.172 44.7388 64.9694 44.5975 64.7128 44.5434C64.4579 44.4806 64.1414 44.5726 63.7634 44.8195L63.1885 45.1949Z" fill="white"/>
<path d="M69.7744 37.8099L70.2938 38.7957C69.6319 38.6274 69.0303 38.6864 68.489 38.9725C67.8985 39.2847 67.5213 39.7362 67.3572 40.3271C67.1958 40.9096 67.2752 41.5048 67.5955 42.1127C67.9043 42.6987 68.3512 43.0891 68.9362 43.284C69.5184 43.4734 70.0992 43.4149 70.6788 43.1085C71.2201 42.8224 71.6011 42.3514 71.8218 41.6955L72.3455 42.6896C72.0305 43.2062 71.6024 43.6076 71.0611 43.8937C70.3011 44.2955 69.5231 44.3846 68.7273 44.1612C67.8537 43.9228 67.1976 43.3874 66.759 42.5549C66.2973 41.6786 66.2132 40.8093 66.5068 39.9469C66.7588 39.2045 67.2921 38.618 68.1068 38.1873C68.6699 37.8896 69.2258 37.7638 69.7744 37.8099Z" fill="white"/>
<path d="M73.4201 42.5195L74.13 39.43C73.7764 39.5298 73.429 39.5231 73.0878 39.4099C72.6439 39.2589 72.3132 38.9203 72.0955 38.3939C71.8968 37.9133 71.878 37.4553 72.0392 37.0197C72.1248 36.7899 72.2556 36.5882 72.4314 36.4147C72.6073 36.2412 72.7585 36.1214 72.8852 36.0555C73.0118 35.9896 73.1722 35.9163 73.3664 35.8357L74.7715 35.2528L77.1385 40.9769L76.2646 41.3395L75.3171 39.0481L75.1115 39.1334L74.4996 42.0717L73.4201 42.5195ZM74.2312 36.4221L73.8028 36.5998C73.3344 36.7941 73.0455 37.0178 72.9361 37.271C72.8243 37.5185 72.824 37.7767 72.9352 38.0456C73.0629 38.3545 73.2661 38.5383 73.5446 38.597C73.807 38.6491 74.1267 38.5969 74.5037 38.4405L74.9835 38.2414L74.2312 36.4221Z" fill="white"/>
<path d="M84.349 32.595L84.6319 33.673C84.0253 33.3589 83.426 33.2798 82.8341 33.4357C82.1883 33.6057 81.7187 33.9598 81.4253 34.4981C81.1363 35.0288 81.079 35.6266 81.2535 36.2914C81.4216 36.9322 81.7686 37.4139 82.2943 37.7365C82.8185 38.0531 83.3975 38.128 84.0313 37.9611C84.6232 37.8052 85.1009 37.4329 85.4641 36.8443L85.7494 37.9313C85.3257 38.363 84.8179 38.6568 84.226 38.8126C83.3949 39.0315 82.617 38.9417 81.8924 38.5434C81.0955 38.113 80.5775 37.4426 80.3386 36.5322C80.0872 35.574 80.2019 34.7082 80.683 33.9348C81.0963 33.2689 81.7485 32.8187 82.6394 32.5841C83.2552 32.422 83.8251 32.4256 84.349 32.595Z" fill="white"/>
<path d="M89.5862 31.2085L94.1038 30.7182L94.7702 36.8778L93.8298 36.9798L93.2593 31.7068L90.6225 31.993L91.1929 37.266L90.2525 37.3681L89.5862 31.2085Z" fill="white"/>
<path d="M97.1309 30.5221L98.4939 30.501C99.0627 30.4922 99.5156 30.5967 99.8529 30.8144C100.103 30.9778 100.295 31.1947 100.429 31.4651C100.569 31.7292 100.641 32.0099 100.646 32.3071C100.654 32.8644 100.46 33.3195 100.064 33.6725C99.6918 34.0003 99.1904 34.1691 98.5599 34.1788L98.1334 34.1854L98.1722 36.7024L97.2264 36.717L97.1309 30.5221ZM98.0901 31.3805L98.1199 33.3124L98.5465 33.3058C98.9421 33.2996 99.2406 33.2083 99.4419 33.0318C99.6431 32.8491 99.7414 32.6091 99.7368 32.3119C99.7352 32.2066 99.7182 32.1078 99.6859 32.0154C99.6597 31.9229 99.6057 31.8247 99.5237 31.7206C99.4478 31.6103 99.3228 31.5256 99.1488 31.4663C98.9746 31.4009 98.7609 31.3701 98.5074 31.374L98.0901 31.3805Z" fill="white"/>
<path d="M103.268 31.32C103.929 30.7611 104.719 30.5207 105.637 30.5989C106.555 30.6771 107.293 31.0476 107.851 31.7104C108.409 32.3732 108.649 33.1613 108.571 34.0745C108.494 34.9877 108.124 35.7237 107.463 36.2826C106.801 36.8415 106.011 37.0819 105.093 37.0037C104.175 36.9255 103.437 36.555 102.879 35.8922C102.321 35.2293 102.081 34.4413 102.159 33.5281C102.236 32.6149 102.606 31.8789 103.268 31.32ZM103.596 35.3472C103.984 35.8154 104.508 36.0775 105.167 36.1337C105.826 36.1898 106.387 36.02 106.848 35.6243C107.311 35.2225 107.571 34.6791 107.629 33.9942C107.687 33.3093 107.522 32.7327 107.134 32.2646C106.746 31.7903 106.222 31.5251 105.563 31.4689C104.904 31.4128 104.343 31.5856 103.881 31.9875C103.419 32.3832 103.159 32.9235 103.101 33.6084C103.043 34.2933 103.208 34.8729 103.596 35.3472Z" fill="white"/>
<path d="M111.107 31.3282L114.891 32.0812L113.859 37.2834L114.551 37.421L114.106 39.6623L113.233 39.4885L113.504 38.1219L109.593 37.3436L109.322 38.7102L108.449 38.5364L108.893 36.2952C109.098 36.3423 109.301 36.3068 109.5 36.1887C109.702 36.0646 109.875 35.8907 110.02 35.667C110.239 35.3255 110.417 34.8085 110.554 34.1161L111.107 31.3282ZM111.862 32.3875L111.482 34.3007C111.332 35.06 111.15 35.6109 110.937 35.9537C110.772 36.2114 110.567 36.4199 110.321 36.5793L112.932 37.0988L113.79 32.7712L111.862 32.3875Z" fill="white"/>
<path d="M117.497 32.6437L118.595 32.9869L119.134 36.6195L121.498 33.8945L122.437 34.1878L117.929 39.2693L116.991 38.9759L118.274 37.538L117.497 32.6437Z" fill="white"/>
<path d="M125.339 35.2676L124.378 37.5432L127.542 36.2011L128.687 36.686L125.025 38.1805L126.294 42.3995L125.133 41.9074L124.169 38.5139L123.926 38.6126L122.929 40.9738L122.058 40.6047L124.468 34.8985L125.339 35.2676Z" fill="white"/>
<path d="M127.724 43.0406L130.712 37.6156L131.54 38.0732L128.982 42.7174L131.224 43.9557L133.781 39.3115L134.609 39.7692L132.052 44.4133L132.75 44.7992L131.648 46.8L130.869 46.3693L131.541 45.1493L127.724 43.0406Z" fill="white"/>
<path d="M137.243 48.9025L139.643 45.4942L133.672 46.721L137.398 41.4302L138.17 41.9763L135.76 45.3997L141.73 44.173L138.016 49.4485L137.243 48.9025Z" fill="white"/>
<path d="M145.774 47.8617L145.194 48.5385L143.322 46.9297L142.301 48.1211L144.117 49.6815L143.538 50.3583L141.722 48.7979L140.454 50.2784L142.326 51.8872L141.746 52.564L139.156 50.3383L143.184 45.6359L145.774 47.8617Z" fill="white"/>
<path d="M146.239 56.9872L149.247 54.1031L143.152 54.1605L147.821 49.6833L148.475 50.3677L145.454 53.2647L151.549 53.2073L146.893 57.6716L146.239 56.9872ZM149.638 49.3683L150.393 49.6738C150.333 49.782 150.3 49.8908 150.294 50.0001C150.296 50.1097 150.317 50.2087 150.359 50.2972C150.41 50.3859 150.448 50.4524 150.473 50.4968C150.503 50.5368 150.533 50.5725 150.563 50.6038C150.592 50.6352 150.627 50.6666 150.665 50.6981C150.709 50.7253 150.771 50.7639 150.853 50.8139C150.944 50.864 151.042 50.8902 151.147 50.8925C151.26 50.895 151.372 50.869 151.483 50.8145L151.755 51.5825C151.406 51.7194 151.08 51.732 150.777 51.6203C150.477 51.513 150.223 51.3498 150.013 51.1306C149.804 50.9114 149.65 50.6474 149.552 50.3387C149.458 50.0344 149.487 49.7109 149.638 49.3683Z" fill="white"/>
<path d="M160.065 74.5105C160.209 74.1814 160.447 73.9512 160.781 73.82C161.115 73.6888 161.446 73.695 161.775 73.8386C162.103 73.9822 162.333 74.2212 162.464 74.5555C162.595 74.8898 162.589 75.2216 162.445 75.5507C162.302 75.8798 162.064 76.1099 161.73 76.2411C161.396 76.3723 161.065 76.3661 160.736 76.2225C160.408 76.0789 160.178 75.84 160.047 75.5056C159.916 75.1713 159.922 74.8396 160.065 74.5105Z" fill="white"/>
<path d="M78.89 94H82.04V89.17H85.085C88.214 89.17 90.335 87.091 90.335 84.235C90.335 81.379 88.214 79.3 85.085 79.3H78.89V94ZM82.04 86.23V82.24H84.98C86.24 82.24 87.08 83.059 87.08 84.235C87.08 85.411 86.24 86.23 84.98 86.23H82.04ZM93.1634 94H98.5184C103.033 94 106.288 90.745 106.288 86.65C106.288 82.555 103.033 79.3 98.5184 79.3H93.1634V94ZM96.3134 91.06V82.24H98.5184C101.143 82.24 103.033 84.13 103.033 86.65C103.033 89.17 101.143 91.06 98.5184 91.06H96.3134ZM109.119 94H112.269V88.645H118.254V85.705H112.269V82.24H119.934V79.3H109.119V94Z" fill="white"/>
<path d="M99.2929 124.707C99.6834 125.098 100.317 125.098 100.707 124.707L107.071 118.343C107.462 117.953 107.462 117.319 107.071 116.929C106.681 116.538 106.047 116.538 105.657 116.929L100 122.586L94.3431 116.929C93.9526 116.538 93.3195 116.538 92.9289 116.929C92.5384 117.319 92.5384 117.953 92.9289 118.343L99.2929 124.707ZM99 109V124H101V109H99Z" fill="white"/>
<defs>
<filter id="filter0_bd_11_185" x="0" y="0" width="199" height="199" filterUnits="userSpaceOnUse" color-interpolation-filters="sRGB">
<feFlood flood-opacity="0" result="BackgroundImageFix"/>
<feGaussianBlur in="BackgroundImage" stdDeviation="5"/>
<feComposite in2="SourceAlpha" operator="in" result="effect1_backgroundBlur_11_185"/>
<feColorMatrix in="SourceAlpha" type="matrix" values="0 0 0 0 0 0 0 0 0 0 0 0 0 0 0 0 0 0 127 0" result="hardAlpha"/>
<feOffset/>
<feGaussianBlur stdDeviation="7"/>
<feComposite in2="hardAlpha" operator="out"/>
<feColorMatrix type="matrix" values="0 0 0 0 0 0 0 0 0 0 0 0 0 0 0 0 0 0 0.15 0"/>
<feBlend mode="normal" in2="effect1_backgroundBlur_11_185" result="effect2_dropShadow_11_185"/>
<feBlend mode="normal" in="SourceGraphic" in2="effect2_dropShadow_11_185" result="shape"/>
</filter>
</defs>
</svg>
